<svg width="70" height="70" viewBox="0 0 70 70" fill="none" xmlns="http://www.w3.org/2000/svg">
<path d="M35 39.1708C36.1951 39.1708 37.3784 38.9354 38.4824 38.4781C39.5865 38.0208 40.5897 37.3505 41.4347 36.5055C42.2797 35.6605 42.95 34.6573 43.4073 33.5532C43.8646 32.4492 44.1 31.2659 44.1 30.0708C44.1 28.8758 43.8646 27.6925 43.4073 26.5884C42.95 25.4843 42.2797 24.4812 41.4347 23.6362C40.5897 22.7911 39.5865 22.1208 38.4824 21.6635C37.3784 21.2062 36.1951 20.9708 35 20.9708C32.5866 20.9708 30.2719 21.9296 28.5654 23.6362C26.8588 25.3427 25.9 27.6574 25.9 30.0708C25.9 32.4843 26.8588 34.7989 28.5654 36.5055C30.2719 38.2121 32.5866 39.1708 35 39.1708V39.1708Z" stroke="url(#paint0_linear_8_2144)" stroke-width="1.5"/>
<path d="M10.5584 24.7625C16.3042 -0.495786 53.725 -0.466619 59.4417 24.7917C62.7959 39.6084 53.5792 52.15 45.5 59.9084C42.6769 62.6312 38.9077 64.1527 34.9855 64.1527C31.0633 64.1527 27.294 62.6312 24.4709 59.9084C16.4209 52.15 7.20421 39.5792 10.5584 24.7625V24.7625Z" stroke="url(#paint1_linear_8_2144)" stroke-width="1.5"/>
<defs>
<linearGradient id="paint0_linear_8_2144" x1="35" y1="20.9708" x2="35" y2="39.1708" gradientUnits="userSpaceOnUse">
<stop stop-color="#FFD613"/>
<stop offset="1" stop-color="#68580A"/>
</linearGradient>
<linearGradient id="paint1_linear_8_2144" x1="35" y1="5.83337" x2="35" y2="64.1527" gradientUnits="userSpaceOnUse">
<stop stop-color="#FFD613"/>
<stop offset="1" stop-color="#68580A"/>
</linearGradient>
</defs>
</svg>
